<svg width="29" height="28" viewBox="0 0 29 28" fill="none" xmlns="http://www.w3.org/2000/svg">
<g clip-path="url(#clip0_6_23)">
<path d="M14.4231 27.3613C22.3888 27.3613 28.8462 21.353 28.8462 13.9415C28.8462 6.52997 22.3888 0.521729 14.4231 0.521729C6.45745 0.521729 0 6.52997 0 13.9415C0 21.353 6.45745 27.3613 14.4231 27.3613Z" fill="#489AFB"/>
<path d="M14.4258 0.521729C22.3929 0.521729 28.8515 6.52997 28.8515 13.9415C28.8515 21.353 22.3929 27.3613 14.4258 27.3613C6.45863 27.3613 0 21.353 0 13.9415C0 6.52997 6.45863 0.521729 14.4258 0.521729ZM6.15912 7.30901C6.03515 7.31933 5.93936 7.3606 5.87173 7.43283C5.80411 7.50507 5.7703 7.6031 5.7703 7.72692V17.8034C5.7703 17.9478 5.81538 18.0871 5.90554 18.2213C5.99571 18.3554 6.11404 18.4535 6.26055 18.5154L10.7404 20.5895C10.8419 20.6308 10.9489 20.6514 11.0616 20.6514C11.2194 20.6411 11.3377 20.5869 11.4166 20.4889C11.4955 20.3908 11.535 20.2696 11.535 20.1251V9.73912C11.535 9.7288 11.5293 9.71332 11.5181 9.69268L6.56485 7.43283C6.38453 7.35028 6.24928 7.30901 6.15912 7.30901ZM23.0812 10.7916L17.8744 18.5618L22.1345 20.5121C22.281 20.5946 22.4304 20.6308 22.5825 20.6204C22.7347 20.6101 22.8558 20.5611 22.946 20.4734C23.0361 20.3857 23.0812 20.2696 23.0812 20.1251V10.7916ZM12.1605 10.6369V15.946L17.3165 18.2987L12.1605 10.6369ZM17.5363 7.23162C17.3109 7.23162 17.1475 7.31933 17.0461 7.49475L13.9017 12.1537L17.6885 17.7414C17.9589 17.3184 18.9197 15.8815 20.5708 13.4307L20.7729 13.1307C22.2892 10.8791 23.0474 9.74342 23.0474 9.72364C23.0474 9.703 23.0361 9.68752 23.0136 9.6772L17.7899 7.29353C17.7223 7.25225 17.6377 7.23162 17.5363 7.23162Z" fill="white"/>
</g>
<defs>
<clipPath id="clip0_6_23">
<rect width="28.8463" height="26.8395" fill="white" transform="translate(0 0.521729)"/>
</clipPath>
</defs>
</svg>
