<svg width="29" height="28" viewBox="0 0 29 28" fill="none" xmlns="http://www.w3.org/2000/svg">
<g clip-path="url(#clip0_6_35)">
<path d="M14.5769 27.3613C22.5425 27.3613 29 21.353 29 13.9415C29 6.52997 22.5425 0.521729 14.5769 0.521729C6.6112 0.521729 0.153748 6.52997 0.153748 13.9415C0.153748 21.353 6.6112 27.3613 14.5769 27.3613Z" fill="#489AFB"/>
<path d="M14.5795 0.521729C22.5466 0.521729 29.0053 6.52997 29.0053 13.9415C29.0053 21.353 22.5466 27.3613 14.5795 27.3613C6.61238 27.3613 0.153748 21.353 0.153748 13.9415C0.153748 6.52997 6.61238 0.521729 14.5795 0.521729ZM22.2363 8.48947C22.5111 7.49842 21.8367 7.03746 21.1374 7.33708L5.80191 12.7994C4.75291 13.1912 4.75291 13.7213 5.6021 13.9518L9.54836 15.1042L18.6647 9.8032C19.0893 9.54967 19.4889 9.68796 19.1642 9.96453L11.7712 16.0953L11.4965 19.8521C11.8961 19.8521 12.071 19.6907 12.2958 19.4833L14.2189 17.7547L18.1902 20.4743C18.9395 20.8662 19.464 20.6587 19.6388 19.8521L22.2363 8.48947Z" fill="white"/>
</g>
<defs>
<clipPath id="clip0_6_35">
<rect width="28.8463" height="26.8395" fill="white" transform="translate(0.153748 0.521729)"/>
</clipPath>
</defs>
</svg>
