<svg width="29" height="28" viewBox="0 0 29 28" fill="none" xmlns="http://www.w3.org/2000/svg">
<g clip-path="url(#clip0_6_29)">
<path d="M14.5017 27.3613C22.4674 27.3613 28.9248 21.353 28.9248 13.9415C28.9248 6.52997 22.4674 0.521729 14.5017 0.521729C6.53601 0.521729 0.0785522 6.52997 0.0785522 13.9415C0.0785522 21.353 6.53601 27.3613 14.5017 27.3613Z" fill="#489AFB"/>
<path d="M14.5043 0.521729C22.4714 0.521729 28.9301 6.52997 28.9301 13.9415C28.9301 21.353 22.4714 27.3613 14.5043 27.3613C6.53718 27.3613 0.0785522 21.353 0.0785522 13.9415C0.0785522 6.52997 6.53718 0.521729 14.5043 0.521729ZM18.8319 7.23162C16.7016 7.23162 14.9884 8.75176 14.9884 10.6169C14.9884 10.8794 15.0248 11.1417 15.0833 11.3935C11.8941 11.2477 9.05026 9.90545 7.15831 7.84979C6.82519 8.35232 6.63429 8.92961 6.63429 9.55943C6.63429 10.7335 7.31273 11.7706 8.34746 12.379C7.71765 12.3577 7.1219 12.2003 6.61004 11.9495V11.9913C6.61004 13.6358 7.93047 14.9995 9.6922 15.3144C9.37115 15.3873 9.02588 15.429 8.68062 15.429C8.43132 15.429 8.19299 15.4086 7.95585 15.3765C8.44348 16.7189 9.85986 17.6937 11.5488 17.7258C10.2272 18.6375 8.57359 19.172 6.77661 19.172C6.4556 19.172 6.15772 19.1624 5.84886 19.1312C7.55102 20.0954 9.57308 20.6514 11.7518 20.6514C18.8197 20.6514 22.6873 15.4933 22.6873 11.0173C22.6873 10.8696 22.6873 10.7239 22.6762 10.5761C23.4242 10.094 24.0784 9.49531 24.6023 8.82466C23.9118 9.0871 23.1627 9.27563 22.3883 9.34851C23.186 8.92961 23.7926 8.26967 24.0784 7.48337C23.3404 7.87115 22.5075 8.15402 21.6393 8.30079C20.9377 7.63982 19.9383 7.23162 18.8319 7.23162Z" fill="white"/>
</g>
<defs>
<clipPath id="clip0_6_29">
<rect width="28.8463" height="26.8395" fill="white" transform="translate(0.0785522 0.521729)"/>
</clipPath>
</defs>
</svg>
